<svg width="16" height="14" viewBox="0 0 16 14" fill="none" xmlns="http://www.w3.org/2000/svg">
<path d="M3.60981 14C2.82008 14 2.21978 13.8099 1.8089 13.4297C1.39803 13.0494 1.1926 12.4842 1.1926 11.7338V3.61217H2.48124V11.7947C2.48124 12.1343 2.57729 12.3954 2.76938 12.5779C2.96148 12.7605 3.23628 12.8517 3.5938 12.8517H12.4062C12.7584 12.8517 13.0305 12.7605 13.2226 12.5779C13.42 12.3954 13.5188 12.1343 13.5188 11.7947V3.61217H14.8074V11.7338C14.8074 12.4791 14.602 13.0418 14.1911 13.4221C13.7802 13.8074 13.1799 14 12.3902 14H3.60981ZM5.36268 7.24715C5.19193 7.24715 5.05319 7.19645 4.94647 7.09506C4.84509 6.99366 4.7944 6.85932 4.7944 6.69202V6.44867C4.7944 6.28137 4.84509 6.14956 4.94647 6.05323C5.05319 5.95184 5.19193 5.90114 5.36268 5.90114H10.6453C10.8161 5.90114 10.9548 5.95184 11.0615 6.05323C11.1683 6.14956 11.2216 6.28137 11.2216 6.44867V6.69202C11.2216 6.85932 11.1683 6.99366 11.0615 7.09506C10.9548 7.19645 10.8161 7.24715 10.6453 7.24715H5.36268ZM1.52076 4.18251C1.02985 4.18251 0.65366 4.04563 0.392196 3.77186C0.130732 3.4981 0 3.13054 0 2.6692V1.51331C0 1.04689 0.136068 0.679341 0.408204 0.410646C0.68034 0.136882 1.05119 0 1.52076 0H14.4792C14.9702 0 15.3463 0.136882 15.6078 0.410646C15.8693 0.679341 16 1.04689 16 1.51331V2.6692C16 3.13054 15.8693 3.4981 15.6078 3.77186C15.3463 4.04563 14.9702 4.18251 14.4792 4.18251H1.52076ZM1.84892 3.03422H14.1591C14.3618 3.03422 14.5033 2.99113 14.5833 2.90494C14.6687 2.81876 14.7114 2.68188 14.7114 2.4943V1.68821C14.7114 1.49556 14.6687 1.35868 14.5833 1.27757C14.5033 1.19138 14.3618 1.14829 14.1591 1.14829H1.84892C1.64616 1.14829 1.50208 1.19138 1.41671 1.27757C1.33133 1.35868 1.28864 1.49556 1.28864 1.68821V2.4943C1.28864 2.68188 1.33133 2.81876 1.41671 2.90494C1.50208 2.99113 1.64616 3.03422 1.84892 3.03422Z" fill="#68686A"/>
</svg>
