<svg width="16" height="18" viewBox="0 0 16 18" fill="none" xmlns="http://www.w3.org/2000/svg">
<path d="M0.948296 17.0384C0.321156 16.4075 0.00507781 15.7413 6.06909e-05 15.0397C-0.00495643 14.3381 0.301088 13.6769 0.918193 13.0561C1.14396 12.829 1.43245 12.6018 1.78365 12.3747C2.13484 12.1425 2.5036 11.9154 2.88992 11.6933C3.27624 11.4662 3.63998 11.2517 3.98114 11.0498C4.32231 10.8429 4.59825 10.6511 4.80897 10.4744L3.19847 8.8618C2.90246 8.56401 2.75446 8.24855 2.75446 7.91543C2.75446 7.58231 2.89745 7.2719 3.18342 6.9842L4.15423 5.99998C4.44523 5.71228 4.75378 5.57096 5.07989 5.57601C5.41102 5.57601 5.72459 5.7249 6.0206 6.02269L11.8982 11.9432C12.1992 12.241 12.3497 12.5539 12.3497 12.882C12.3497 13.2101 12.2067 13.5205 11.9207 13.8132L10.9499 14.7974C10.6639 15.0851 10.3529 15.2264 10.0167 15.2214C9.68561 15.2214 9.37454 15.0725 9.08355 14.7747L7.48058 13.1545C7.29997 13.3665 7.10681 13.6441 6.9011 13.9873C6.70042 14.3306 6.4897 14.6965 6.26895 15.0851C6.04819 15.4788 5.82242 15.8523 5.59164 16.2056C5.36587 16.5589 5.13759 16.8492 4.9068 17.0763C4.2897 17.6971 3.63245 18.005 2.93507 17.9999C2.23769 17.9949 1.57544 17.6744 0.948296 17.0384ZM4.22949 7.65802C4.02379 7.85991 4.02379 8.06433 4.22949 8.27127L6.04318 10.0883C6.18366 10.2246 6.24637 10.3785 6.23132 10.5501C6.21627 10.7217 6.13349 10.8883 5.98297 11.0498C5.83748 11.1962 5.59164 11.3703 5.24546 11.5722C4.90429 11.769 4.51797 11.9886 4.0865 12.2309C3.65503 12.4731 3.22858 12.7331 2.80714 13.0107C2.3857 13.2883 2.02698 13.576 1.73097 13.8738C1.36472 14.2372 1.18159 14.6283 1.18159 15.0473C1.18661 15.4662 1.37475 15.8624 1.74602 16.2359C2.1223 16.6094 2.51614 16.7962 2.92755 16.7962C3.34397 16.8012 3.7328 16.6195 4.09403 16.251C4.39505 15.9533 4.68103 15.5924 4.95195 15.1684C5.2279 14.7444 5.48628 14.3154 5.7271 13.8813C5.96792 13.4473 6.18867 13.0586 6.38936 12.7154C6.59004 12.3722 6.76313 12.1274 6.90863 11.981C7.06918 11.8246 7.23223 11.7413 7.3978 11.7312C7.56838 11.716 7.72391 11.7791 7.86439 11.9205L9.66303 13.7375C9.86873 13.9545 10.0744 13.952 10.2801 13.7299L10.8671 13.1318C11.0728 12.9249 11.0779 12.7205 10.8822 12.5186L5.44112 7.05234C5.3458 6.9514 5.24546 6.90345 5.1401 6.90849C5.03975 6.90849 4.93941 6.95897 4.83907 7.05991L4.22949 7.65802ZM2.89745 16.0315C2.64157 16.0315 2.42082 15.9381 2.23519 15.7514C2.05457 15.5697 1.96426 15.3501 1.96426 15.0927C1.96426 14.8353 2.05457 14.6157 2.23519 14.434C2.42082 14.2523 2.64157 14.1615 2.89745 14.1615C3.15332 14.1615 3.37156 14.2523 3.55218 14.434C3.7328 14.6157 3.8231 14.8353 3.8231 15.0927C3.8231 15.3501 3.7328 15.5697 3.55218 15.7514C3.37156 15.9381 3.15332 16.0315 2.89745 16.0315ZM11.8154 12.6927L10.9725 11.8448L14.4569 8.3394C14.6174 8.17789 14.6977 7.99871 14.6977 7.80187C14.6977 7.60502 14.6099 7.41827 14.4343 7.24162L8.79757 1.57854C8.71228 1.49274 8.62448 1.44731 8.53418 1.44227C8.44387 1.43217 8.36109 1.45993 8.28583 1.52555C8.21559 1.58611 8.16291 1.68201 8.12779 1.81324C7.94717 2.48958 7.79415 3.0675 7.66872 3.54699C7.5433 4.02144 7.41285 4.44541 7.27739 4.81891C7.14694 5.19241 6.98138 5.55834 6.78069 5.9167C6.58503 6.27001 6.32163 6.6637 5.9905 7.09777L5.12505 6.22711C5.35583 5.90408 5.54648 5.61891 5.697 5.37159C5.84751 5.12427 5.97545 4.87948 6.08081 4.63721C6.18617 4.38989 6.28149 4.11734 6.36678 3.81955C6.45709 3.51671 6.54991 3.15583 6.64523 2.7369C6.74557 2.31293 6.86598 1.79558 7.00646 1.18485C7.0767 0.876969 7.20464 0.627127 7.39027 0.43533C7.57591 0.243532 7.78913 0.114826 8.02996 0.0492112C8.27579 -0.0164037 8.52163 -0.0164037 8.76747 0.0492112C9.01833 0.109779 9.2441 0.238485 9.44478 0.43533L15.3524 6.3861C15.7789 6.82017 15.9946 7.27695 15.9996 7.75644C16.0097 8.23089 15.8065 8.67757 15.3901 9.0965L11.8154 12.6927ZM10.6263 8.37726C10.536 8.28641 10.5435 8.19051 10.6489 8.08956C11.0703 7.66559 11.4366 7.20124 11.7476 6.69651C12.0637 6.19178 12.2569 5.60377 12.3271 4.93248L13.9828 6.59051C13.7921 6.83278 13.5312 7.0801 13.2001 7.33247C12.869 7.57978 12.5228 7.80187 12.1616 7.99871C11.8053 8.19051 11.4842 8.32679 11.1983 8.40754C10.9173 8.4883 10.7267 8.4782 10.6263 8.37726Z" fill="#68686A"/>
</svg>
