<svg width="16" height="16" viewBox="0 0 16 16" fill="none" xmlns="http://www.w3.org/2000/svg">
<path d="M8 16C6.89673 16 5.86144 15.7909 4.89412 15.3726C3.9268 14.9595 3.07712 14.3869 2.3451 13.6549C1.61307 12.9229 1.03791 12.0732 0.619608 11.1059C0.206536 10.1386 0 9.10327 0 8C0 6.89673 0.206536 5.86144 0.619608 4.89412C1.03791 3.9268 1.61307 3.07712 2.3451 2.3451C3.07712 1.60784 3.9268 1.03268 4.89412 0.619608C5.86144 0.206536 6.89673 0 8 0C9.10327 0 10.1386 0.206536 11.1059 0.619608C12.0732 1.03268 12.9229 1.60784 13.6549 2.3451C14.3869 3.07712 14.9595 3.9268 15.3726 4.89412C15.7909 5.86144 16 6.89673 16 8C16 9.10327 15.7909 10.1386 15.3726 11.1059C14.9595 12.0732 14.3869 12.9229 13.6549 13.6549C12.9229 14.3869 12.0732 14.9595 11.1059 15.3726C10.1386 15.7909 9.10327 16 8 16ZM8 14.6667C8.92026 14.6667 9.78301 14.4941 10.5882 14.149C11.3935 13.8039 12.102 13.3255 12.7137 12.7137C13.3255 12.102 13.8039 11.3935 14.149 10.5882C14.4941 9.78301 14.6667 8.92026 14.6667 8C14.6667 7.07974 14.4941 6.21699 14.149 5.41177C13.8039 4.60131 13.3255 3.89281 12.7137 3.28627C12.102 2.67451 11.3935 2.19608 10.5882 1.85098C9.78301 1.50588 8.92026 1.33333 8 1.33333C7.07974 1.33333 6.21699 1.50588 5.41177 1.85098C4.60654 2.19608 3.89804 2.67451 3.28627 3.28627C2.67451 3.89281 2.19608 4.60131 1.85098 5.41177C1.50588 6.21699 1.33333 7.07974 1.33333 8C1.33333 8.92026 1.50588 9.78301 1.85098 10.5882C2.19608 11.3935 2.67451 12.102 3.28627 12.7137C3.89804 13.3255 4.60654 13.8039 5.41177 14.149C6.21699 14.4941 7.07974 14.6667 8 14.6667ZM7.84314 9.62353C7.42484 9.62353 7.21569 9.41699 7.21569 9.00392C7.21569 8.98824 7.21569 8.97255 7.21569 8.95686C7.21569 8.93595 7.21569 8.91765 7.21569 8.90196C7.21569 8.51503 7.30719 8.20392 7.4902 7.96863C7.67843 7.73333 7.91373 7.51895 8.19608 7.32549C8.54118 7.08497 8.79739 6.88105 8.96471 6.71373C9.13203 6.54118 9.21569 6.32157 9.21569 6.0549C9.21569 5.75686 9.1085 5.51634 8.89412 5.33333C8.67974 5.1451 8.39216 5.05098 8.03137 5.05098C7.85882 5.05098 7.69673 5.07974 7.5451 5.13726C7.39869 5.19477 7.26536 5.27843 7.1451 5.38824C7.02484 5.49281 6.91765 5.62092 6.82353 5.77255L6.68235 5.96078C6.61438 6.0549 6.53333 6.13072 6.43922 6.18824C6.35033 6.24575 6.24052 6.27451 6.1098 6.27451C5.97909 6.27451 5.85621 6.23007 5.74118 6.14118C5.62614 6.04706 5.56863 5.91111 5.56863 5.73333C5.56863 5.66536 5.57386 5.6 5.58431 5.53726C5.59477 5.47451 5.61046 5.41177 5.63137 5.34902C5.74118 4.98824 6.00784 4.6719 6.43137 4.4C6.86013 4.12288 7.41177 3.98431 8.08628 3.98431C8.53072 3.98431 8.94118 4.06275 9.31765 4.21961C9.69412 4.37124 9.99739 4.59608 10.2275 4.89412C10.4627 5.19216 10.5804 5.55817 10.5804 5.99216C10.5804 6.46275 10.4575 6.83399 10.2118 7.10588C9.96601 7.37778 9.6549 7.63922 9.27843 7.8902C9.00131 8.0732 8.79739 8.24575 8.66667 8.40784C8.53595 8.56471 8.47059 8.75294 8.47059 8.97255C8.47059 8.98301 8.47059 8.99869 8.47059 9.01961C8.47059 9.03529 8.47059 9.05098 8.47059 9.06667C8.47059 9.2183 8.41307 9.34902 8.29804 9.45882C8.18824 9.56863 8.0366 9.62353 7.84314 9.62353ZM7.81961 11.9608C7.59477 11.9608 7.39869 11.8824 7.23137 11.7255C7.06405 11.5634 6.98039 11.3699 6.98039 11.1451C6.98039 10.9203 7.06144 10.7294 7.22353 10.5725C7.39085 10.4105 7.58954 10.3294 7.81961 10.3294C8.04967 10.3294 8.24837 10.4078 8.41569 10.5647C8.58301 10.7216 8.66667 10.915 8.66667 11.1451C8.66667 11.3752 8.58301 11.5686 8.41569 11.7255C8.24837 11.8824 8.04967 11.9608 7.81961 11.9608Z" fill="#68686A"/>
</svg>
