<svg width="16" height="13" viewBox="0 0 16 13" fill="none" xmlns="http://www.w3.org/2000/svg">
<path d="M2.21224 13C1.47483 13 0.920593 12.8153 0.549538 12.4459C0.183179 12.0812 0 11.5319 0 10.7978V2.13825C0 1.42313 0.169089 0.887978 0.507266 0.532787C0.845443 0.177596 1.32453 0 1.94452 0H3.95244C4.18259 0 4.38221 0.0165756 4.5513 0.0497268C4.72508 0.082878 4.88243 0.137341 5.02334 0.213115C5.16894 0.288889 5.31924 0.393078 5.47424 0.525683L5.90401 0.880874C6.08249 1.03242 6.25393 1.14135 6.41832 1.20765C6.58271 1.26922 6.78468 1.3 7.02422 1.3H13.7878C14.5205 1.3 15.0724 1.4847 15.4434 1.8541C15.8145 2.2235 16 2.77286 16 3.50219V10.7978C16 11.5319 15.8239 12.0812 15.4716 12.4459C15.1193 12.8153 14.6285 13 13.9991 13H2.21224ZM2.22633 11.8563H13.7666C14.1142 11.8563 14.3843 11.7639 14.5768 11.5792C14.7694 11.3898 14.8657 11.1128 14.8657 10.7481V3.56612C14.8657 3.19672 14.7694 2.9173 14.5768 2.72787C14.3843 2.53843 14.1142 2.44372 13.7666 2.44372H6.72831C6.49817 2.44372 6.2962 2.42714 6.12241 2.39399C5.94863 2.36084 5.78893 2.30638 5.64333 2.2306C5.49773 2.15483 5.34977 2.05301 5.19947 1.92514L4.76971 1.56284C4.59122 1.41129 4.41979 1.30237 4.25539 1.23607C4.0957 1.16976 3.89843 1.13661 3.66358 1.13661H2.17701C1.83884 1.13661 1.58051 1.22659 1.40203 1.40656C1.22354 1.58652 1.1343 1.85173 1.1343 2.20219V10.741C1.1343 11.1104 1.22824 11.3898 1.41612 11.5792C1.60399 11.7639 1.87406 11.8563 2.22633 11.8563ZM2.00793 4.43279V3.99945C2.00793 3.77213 2.06429 3.60401 2.17701 3.49508C2.29444 3.38142 2.47057 3.32459 2.70542 3.32459H13.2875C13.5224 3.32459 13.6962 3.38142 13.8089 3.49508C13.9263 3.60401 13.985 3.77213 13.985 3.99945V4.43279H2.00793Z" fill="#68686A"/>
</svg>
