<svg width="16" height="14" viewBox="0 0 16 14" fill="none" xmlns="http://www.w3.org/2000/svg">
<path d="M6.08731 13.3143V9.01379C6.08731 8.8629 6.13348 8.74085 6.22582 8.64765C6.31815 8.55445 6.44127 8.50785 6.59516 8.50785H9.41143C9.56533 8.50785 9.68624 8.55445 9.77418 8.64765C9.86652 8.74085 9.91269 8.8629 9.91269 9.01379V13.3143H6.08731ZM0.692211 7.10984C0.516332 7.10984 0.377827 7.05659 0.276696 6.95007C0.175565 6.83912 0.125 6.71485 0.125 6.57727C0.125 6.40418 0.195352 6.25995 0.336055 6.14456L7.20854 0.319544C7.45477 0.106515 7.71859 0 8 0C8.28141 0 8.54523 0.106515 8.79146 0.319544L15.6639 6.14456C15.8046 6.25995 15.875 6.40418 15.875 6.57727C15.875 6.71485 15.8244 6.83912 15.7233 6.95007C15.6266 7.05659 15.4881 7.10984 15.3078 7.10984C15.2155 7.10984 15.1297 7.08765 15.0506 7.04327C14.9758 6.99889 14.9055 6.95007 14.8395 6.89681L8.23084 1.29815C8.16049 1.23601 8.08354 1.20495 8 1.20495C7.91646 1.20495 7.83951 1.23601 7.76916 1.29815L1.16709 6.89681C1.09673 6.95007 1.02198 6.99889 0.942839 7.04327C0.86809 7.08765 0.784548 7.10984 0.692211 7.10984ZM12.2937 3.57489V1.98383C12.2937 1.83738 12.3376 1.72198 12.4256 1.63766C12.5135 1.5489 12.6278 1.50452 12.7685 1.50452H13.4742C13.6193 1.50452 13.7337 1.5489 13.8172 1.63766C13.9052 1.72198 13.9491 1.83738 13.9491 1.98383V4.98621L12.2937 3.57489ZM3.54146 14C3.07098 14 2.70383 13.8713 2.44001 13.6139C2.18059 13.3609 2.05088 12.9992 2.05088 12.5288V5.15264L3.11275 4.43367V12.2625C3.11275 12.4799 3.16771 12.6442 3.27764 12.7551C3.39196 12.8705 3.55465 12.9282 3.7657 12.9282H12.2409C12.4519 12.9282 12.6124 12.8705 12.7224 12.7551C12.8323 12.6442 12.8872 12.4799 12.8872 12.2625V4.42701L13.9491 5.15264V12.5288C13.9491 12.9948 13.8194 13.3565 13.56 13.6139C13.3006 13.8713 12.9356 14 12.4651 14H3.54146Z" fill="#68686A"/>
</svg>
