<svg width="16" height="14" viewBox="0 0 16 14" fill="none" xmlns="http://www.w3.org/2000/svg">
<path d="M0 12.5237V3.20828C0 2.72409 0.120882 2.3599 0.362646 2.1157C0.608728 1.8715 0.980009 1.7494 1.47649 1.7494H2.29244C2.78892 1.7494 3.15805 1.8715 3.39981 2.1157C3.64158 2.3599 3.76246 2.72409 3.76246 3.20828V3.96614C3.92219 3.92825 4.08841 3.9093 4.2611 3.9093H7.08456C7.25725 3.9093 7.4213 3.92825 7.57672 3.96614V1.45888C7.57672 0.974694 7.6976 0.610499 7.93937 0.3663C8.18545 0.1221 8.55673 0 9.05321 0H10.3225C10.819 0 11.1881 0.1221 11.4298 0.3663C11.6759 0.610499 11.799 0.974694 11.799 1.45888V12.5237C11.799 13.0078 11.6759 13.3699 11.4298 13.6099C11.1881 13.8541 10.819 13.9762 10.3225 13.9762H1.47649C0.980009 13.9762 0.608728 13.8541 0.362646 13.6099C0.120882 13.3699 0 13.0078 0 12.5237ZM0.97785 12.4479C0.97785 12.6373 1.0275 12.7805 1.12679 12.8773C1.22609 12.9742 1.37719 13.0226 1.5801 13.0226H2.78461V3.27775C2.78461 3.09249 2.73496 2.95145 2.63566 2.85461C2.54068 2.75356 2.39174 2.70304 2.18883 2.70304H1.5801C1.37719 2.70304 1.22609 2.75356 1.12679 2.85461C1.0275 2.95145 0.97785 3.09249 0.97785 3.27775V12.4479ZM3.76246 13.0226H7.57672V5.43765C7.57672 5.2524 7.52707 5.11135 7.42778 5.01451C7.3328 4.91347 7.18385 4.86294 6.98095 4.86294H4.36471C4.16612 4.86294 4.01501 4.91347 3.9114 5.01451C3.81211 5.11135 3.76246 5.2524 3.76246 5.43765V13.0226ZM8.55457 13.0226H10.2189C10.4218 13.0226 10.5729 12.9742 10.6722 12.8773C10.7715 12.7805 10.8211 12.6373 10.8211 12.4479V1.52835C10.8211 1.3431 10.7715 1.20205 10.6722 1.10521C10.5729 1.00417 10.4218 0.953642 10.2189 0.953642H9.15682C8.95823 0.953642 8.80713 1.00417 8.70352 1.10521C8.60422 1.20205 8.55457 1.3431 8.55457 1.52835V13.0226ZM4.35176 6.08815C4.35176 5.97868 4.38845 5.88816 4.46185 5.81658C4.53956 5.7408 4.63885 5.70291 4.75974 5.70291H6.59887C6.71544 5.70291 6.81041 5.7408 6.88381 5.81658C6.96152 5.88816 7.00037 5.97868 7.00037 6.08815C7.00037 6.19762 6.96152 6.29025 6.88381 6.36603C6.81041 6.44182 6.71544 6.47971 6.59887 6.47971H4.75974C4.63885 6.47971 4.53956 6.44182 4.46185 6.36603C4.38845 6.29025 4.35176 6.19762 4.35176 6.08815ZM4.35176 11.7974C4.35176 11.6879 4.38845 11.5974 4.46185 11.5258C4.53956 11.45 4.63885 11.4121 4.75974 11.4121H6.59887C6.71544 11.4121 6.81041 11.45 6.88381 11.5258C6.96152 11.5974 7.00037 11.6879 7.00037 11.7974C7.00037 11.9068 6.96152 11.9995 6.88381 12.0753C6.81041 12.151 6.71544 12.1889 6.59887 12.1889H4.75974C4.63885 12.1889 4.53956 12.151 4.46185 12.0753C4.38845 11.9995 4.35176 11.9068 4.35176 11.7974ZM12.3818 12.7005L11.2615 3.2588C11.201 2.77882 11.2766 2.40831 11.4881 2.14727C11.6997 1.88623 12.0558 1.72203 12.5566 1.65466L13.2301 1.56625C13.7266 1.49467 14.1087 1.57046 14.3763 1.7936C14.6483 2.01254 14.8124 2.362 14.8685 2.84198L15.9823 12.2837C16.0385 12.7636 15.9608 13.1342 15.7492 13.3952C15.542 13.6562 15.1901 13.8204 14.6937 13.8878L14.0202 13.9762C13.5237 14.0436 13.1416 13.9678 12.874 13.7489C12.6063 13.5299 12.4422 13.1805 12.3818 12.7005ZM13.3402 12.511C13.3618 12.7005 13.4266 12.8394 13.5345 12.9278C13.6467 13.0163 13.8022 13.0457 14.0007 13.0163L14.48 12.9531C14.6785 12.9278 14.821 12.8626 14.9074 12.7573C14.9937 12.6521 15.0261 12.5047 15.0045 12.3152L13.9101 3.02513C13.8885 2.84408 13.8216 2.70935 13.7093 2.62094C13.5971 2.52831 13.4417 2.49673 13.2431 2.5262L12.7768 2.58304C12.5739 2.61252 12.4293 2.67988 12.3429 2.78514C12.2566 2.8904 12.2242 3.03566 12.2458 3.22091L13.3402 12.511Z" fill="#68686A"/>
</svg>
