<svg width="33" height="33" viewBox="0 0 33 33" fill="none" xmlns="http://www.w3.org/2000/svg">
<path d="M28.1368 16.0627C27.9832 16.063 27.8582 16.1868 27.8549 16.3404C27.824 17.7119 27.5417 19.0419 27.015 20.2957C26.4702 21.5906 25.6882 22.7563 24.6901 23.7587C23.692 24.7612 22.5307 25.5482 21.2372 26.0987C19.9008 26.6676 18.4787 26.9569 17.0085 26.9601C15.5382 26.9634 14.114 26.6794 12.776 26.1173C11.481 25.5724 10.3153 24.7905 9.31283 23.7924C8.31036 22.7944 7.52331 21.6331 6.97278 20.3396C6.43972 19.0873 6.15153 17.7594 6.1147 16.388C6.1107 16.2344 5.98517 16.1113 5.83156 16.1116L1.26811 16.1216C1.10993 16.122 0.982206 16.2521 0.985296 16.4102C1.15799 25.1132 8.27774 32.1058 17.0179 32.0867C25.758 32.0675 32.847 25.0437 32.9816 16.3401C32.984 16.1819 32.8557 16.0524 32.6975 16.0527L28.1349 16.0627L28.1368 16.0627Z" fill="#1F1F1F"/>
<path d="M32.667 0.05228L1.23028 0.121207C1.07393 0.12155 0.948033 0.248915 0.948373 0.404348L0.958449 4.99967C0.958792 5.15601 1.08616 5.28191 1.2416 5.28157L14.0962 5.25338C14.2526 5.25304 14.3791 5.37986 14.3794 5.53529L14.4144 21.4863C14.4147 21.6427 14.5421 21.7686 14.6975 21.7682L19.293 21.7582C19.4493 21.7578 19.5752 21.6305 19.5749 21.475L19.5399 5.52489C19.5396 5.36854 19.6664 5.24209 19.8218 5.24175L32.6765 5.21356C32.8328 5.21322 32.9587 5.08585 32.9584 4.93042L32.9483 0.3351C32.948 0.178754 32.8206 0.0528577 32.6651 0.0531985L32.667 0.05228Z" fill="#1F1F1F"/>
</svg>
