<svg width="148" height="34" viewBox="0 0 148 34" fill="none" xmlns="http://www.w3.org/2000/svg">
<path d="M28.1368 17.0627C27.9832 17.063 27.8582 17.1868 27.8549 17.3404C27.824 18.7119 27.5417 20.0419 27.015 21.2957C26.4702 22.5906 25.6882 23.7563 24.6901 24.7587C23.692 25.7612 22.5307 26.5482 21.2372 27.0987C19.9008 27.6676 18.4787 27.9569 17.0085 27.9601C15.5382 27.9634 14.114 27.6794 12.776 27.1173C11.481 26.5724 10.3153 25.7905 9.31283 24.7924C8.31036 23.7944 7.52331 22.6331 6.97278 21.3396C6.43972 20.0873 6.15153 18.7594 6.1147 17.388C6.1107 17.2344 5.98517 17.1113 5.83156 17.1116L1.26811 17.1216C1.10993 17.122 0.982206 17.2521 0.985296 17.4102C1.15799 26.1132 8.27774 33.1058 17.0179 33.0867C25.758 33.0675 32.847 26.0437 32.9816 17.3401C32.984 17.1819 32.8557 17.0524 32.6975 17.0527L28.1349 17.0627L28.1368 17.0627Z" fill="#F9F9FA"/>
<path d="M32.667 1.05228L1.23028 1.12121C1.07393 1.12155 0.948033 1.24892 0.948373 1.40435L0.958449 5.99967C0.958792 6.15601 1.08616 6.28191 1.2416 6.28157L14.0962 6.25338C14.2526 6.25304 14.3791 6.37986 14.3794 6.53529L14.4144 22.4863C14.4147 22.6427 14.5421 22.7686 14.6975 22.7682L19.293 22.7582C19.4493 22.7578 19.5752 22.6305 19.5749 22.475L19.5399 6.52489C19.5396 6.36854 19.6664 6.24209 19.8218 6.24175L32.6765 6.21356C32.8328 6.21322 32.9587 6.08585 32.9584 5.93042L32.9483 1.3351C32.948 1.17875 32.8206 1.05286 32.6651 1.0532L32.667 1.05228Z" fill="#F9F9FA"/>
<path d="M60.9643 17.7703C60.9658 18.437 60.8537 19.0106 60.6281 19.491C60.4158 19.9715 60.1367 20.3855 59.7908 20.7329C59.2453 21.2808 58.5795 21.6755 57.7934 21.9173C57.0205 22.1456 56.1941 22.2608 55.3141 22.2627C54.5541 22.2644 53.8006 22.1594 53.0534 21.9477C52.3196 21.7226 51.6588 21.3441 51.0709 20.812C50.6434 20.4263 50.2891 19.9537 50.0078 19.3943C49.7266 18.8216 49.5852 18.1953 49.5837 17.5153L52.2237 17.5095C52.2245 17.8561 52.2918 18.1827 52.4259 18.489C52.5732 18.782 52.7537 19.035 52.9675 19.2478C53.2749 19.5538 53.642 19.7597 54.0689 19.8654C54.5091 19.9578 54.9358 20.0035 55.3492 20.0026C55.8425 20.0015 56.3091 19.9472 56.7488 19.8396C57.1886 19.7186 57.5415 19.5178 57.8075 19.2372C57.9671 19.0635 58.1001 18.8833 58.2063 18.6964C58.3125 18.4961 58.3653 18.2227 58.3645 17.876C58.3634 17.356 58.1892 16.9697 57.842 16.7172C57.5081 16.4512 57.121 16.2787 56.6808 16.1997C56.2006 16.1074 55.6738 16.0419 55.1004 16.0032C54.527 15.9644 54.0069 15.9056 53.54 15.8266C53.0465 15.7477 52.5795 15.6087 52.1391 15.4097C51.712 15.2106 51.3314 14.9514 50.9974 14.6322C50.6767 14.2995 50.4158 13.9068 50.2148 13.4539C50.0271 12.9876 49.9326 12.4611 49.9313 11.8745C49.9301 11.3145 50.0423 10.8009 50.268 10.3337C50.4936 9.86658 50.7927 9.44592 51.1652 9.07177C51.6308 8.60408 52.23 8.2361 52.9628 7.96783C53.6955 7.69955 54.4819 7.56449 55.3219 7.56265C56.0819 7.56099 56.8088 7.67939 57.5027 7.91787C58.2098 8.14299 58.8039 8.48169 59.2849 8.93397C59.7125 9.33303 60.0535 9.78562 60.3079 10.2917C60.5757 10.7978 60.7169 11.3508 60.7315 11.9508L58.0915 11.9566C58.0777 11.7033 58.0104 11.4568 57.8899 11.217C57.7827 10.9639 57.6422 10.7442 57.4685 10.558C57.2413 10.3185 56.9209 10.1325 56.5072 10.0001C56.0936 9.86763 55.6935 9.80184 55.3068 9.80269C54.9068 9.80357 54.4936 9.85781 54.0672 9.96541C53.6541 10.073 53.3012 10.2804 53.0085 10.5877C52.8622 10.7481 52.7426 10.9216 52.6497 11.1085C52.5701 11.2954 52.5306 11.5221 52.5312 11.7888C52.5322 12.2554 52.6663 12.6152 52.9335 12.8679C53.2007 13.1073 53.5477 13.2599 53.9745 13.3256C54.428 13.3913 54.9348 13.4502 55.4949 13.5023C56.0684 13.5544 56.5885 13.6132 57.0553 13.6789C57.5888 13.7577 58.0891 13.9033 58.5563 14.1156C59.0367 14.3145 59.4506 14.587 59.7981 14.9329C60.1588 15.2654 60.4397 15.6715 60.6407 16.151C60.8551 16.6305 60.963 17.1703 60.9643 17.7703ZM74.6502 21.9603L72.3302 21.9654L69.9549 14.9506L67.6503 21.9757L65.3303 21.9807L62.6675 11.5866L65.0875 11.5813L66.7624 18.3976L68.9277 11.6728L70.9877 11.6683L73.2023 18.3635L74.7874 11.56L77.1674 11.5548L74.6502 21.9603ZM79.754 10.1091L79.7483 7.5291L82.4283 7.52322L82.4339 10.1032L79.754 10.1091ZM79.8599 21.9489L79.8371 11.5489L82.3771 11.5433L82.3999 21.9433L79.8599 21.9489ZM92.1352 9.46194C91.8684 9.40919 91.6083 9.36976 91.355 9.34365C91.1149 9.31751 90.8282 9.30481 90.4949 9.30554C90.0415 9.30653 89.7018 9.42728 89.4757 9.66777C89.2495 9.89494 89.1368 10.1952 89.1376 10.5685L89.1397 11.5285L91.9197 11.5224L91.9243 13.5824L89.1443 13.5885L89.1625 21.9285L86.6625 21.934L86.6443 13.594L84.8843 13.5979L84.8798 11.5379L86.6397 11.534L86.6376 10.534C86.6354 9.574 86.9404 8.78666 87.5524 8.17199C88.1644 7.55731 89.037 7.24873 90.1704 7.24624C90.5304 7.24546 90.8504 7.26475 91.1305 7.30414C91.4105 7.33019 91.744 7.38279 92.1308 7.46195L92.1352 9.46194ZM100.2 21.7643C99.8539 21.8584 99.5007 21.9258 99.1408 21.9666C98.7942 22.0207 98.4343 22.0482 98.061 22.049C97.0076 22.0513 96.2203 21.773 95.6991 21.2142C95.1779 20.642 94.9161 19.8559 94.9139 18.8559L94.9024 13.5759L93.0024 13.5801L92.9979 11.5201L94.8979 11.5159L94.8921 8.8759L97.3907 8.25042L97.3978 11.5104L100.018 11.5047L100.022 13.5647L97.4024 13.5704L97.4135 18.6304C97.4143 19.0304 97.5083 19.3235 97.6954 19.5098C97.8824 19.6827 98.176 19.7687 98.576 19.7678C98.8426 19.7673 99.0893 19.7601 99.3159 19.7462C99.5559 19.7324 99.8492 19.7051 100.196 19.6643L100.2 21.7643ZM109.668 21.8835L109.506 20.7439C109.2 21.2246 108.781 21.5788 108.248 21.8066C107.715 22.0211 107.162 22.129 106.589 22.1303C106.069 22.1314 105.595 22.0525 105.168 21.8934C104.741 21.7343 104.368 21.5218 104.047 21.2559C103.419 20.7506 102.951 20.1183 102.643 19.3589C102.348 18.5862 102.199 17.7066 102.197 16.7199C102.193 14.6399 102.809 13.0919 104.047 12.0758C104.366 11.8085 104.733 11.601 105.146 11.4534C105.572 11.3058 106.052 11.2314 106.585 11.2303C107.252 11.2288 107.812 11.3276 108.266 11.5266C108.733 11.7122 109.08 11.9381 109.307 12.2043L109.297 7.44431L111.797 7.43883L111.828 21.8788L109.668 21.8835ZM109.437 16.664C109.436 16.2907 109.402 15.9108 109.334 15.5242C109.28 15.1244 109.166 14.7646 108.992 14.445C108.818 14.112 108.577 13.8459 108.27 13.6466C107.963 13.4339 107.563 13.3281 107.07 13.3292C106.683 13.3301 106.35 13.4108 106.07 13.5714C105.804 13.732 105.578 13.9258 105.391 14.1529C105.126 14.5001 104.946 14.8939 104.854 15.3341C104.775 15.7742 104.736 16.221 104.737 16.6743C104.738 17.1277 104.779 17.5809 104.86 18.0341C104.954 18.4739 105.135 18.8668 105.403 19.2129C105.59 19.4391 105.817 19.632 106.084 19.7914C106.364 19.9508 106.698 20.03 107.084 20.0292C107.578 20.0281 107.977 19.9272 108.284 19.7266C108.59 19.5126 108.829 19.2454 109.002 18.925C109.175 18.5913 109.287 18.2244 109.34 17.8242C109.405 17.4241 109.438 17.0374 109.437 16.664ZM121.582 13.7774C121.276 13.7114 120.989 13.6787 120.722 13.6793C119.842 13.6812 119.176 13.9627 118.724 14.5237C118.272 15.0847 118.047 15.7851 118.049 16.6251L118.06 21.8651L115.54 21.8707L115.517 11.4707L117.637 11.466L117.861 13.0255C118.099 12.425 118.492 11.9908 119.038 11.723C119.597 11.4551 120.184 11.3204 120.797 11.3191C121.064 11.3185 121.324 11.3379 121.577 11.3774L121.582 13.7774ZM133.019 16.6323C133.021 17.5123 132.916 18.2525 132.704 18.853C132.492 19.4401 132.193 19.9808 131.808 20.475C131.449 20.9158 130.95 21.2969 130.31 21.6183C129.684 21.9396 128.971 22.1012 128.171 22.103C127.371 22.1047 126.651 21.9463 126.01 21.6277C125.383 21.3091 124.889 20.9302 124.528 20.4909C124.14 19.9985 123.839 19.4591 123.624 18.8729C123.41 18.2734 123.301 17.5336 123.299 16.6536C123.297 15.7736 123.402 15.0401 123.615 14.4529C123.827 13.8525 124.125 13.3051 124.511 12.811C124.87 12.3702 125.362 11.9891 125.988 11.6677C126.628 11.3463 127.347 11.1847 128.147 11.183C128.947 11.1812 129.661 11.3397 130.288 11.6583C130.929 11.9769 131.43 12.3558 131.791 12.795C132.179 13.2875 132.48 13.8335 132.694 14.433C132.909 15.0192 133.017 15.7523 133.019 16.6323ZM130.479 16.6379C130.478 16.1446 130.431 15.6713 130.336 15.2182C130.242 14.7517 130.041 14.3522 129.734 14.0195C129.56 13.8332 129.34 13.6804 129.073 13.561C128.806 13.4282 128.499 13.3622 128.152 13.363C127.805 13.3637 127.499 13.4311 127.233 13.565C126.966 13.6856 126.747 13.8394 126.574 14.0264C126.268 14.3605 126.069 14.7609 125.976 15.2278C125.884 15.6813 125.838 16.1547 125.839 16.6481C125.84 17.1414 125.888 17.6213 125.982 18.0878C126.077 18.5409 126.278 18.9338 126.585 19.2664C126.759 19.4527 126.979 19.6122 127.246 19.745C127.513 19.8644 127.82 19.9237 128.167 19.923C128.513 19.9222 128.82 19.8615 129.086 19.741C129.352 19.607 129.572 19.4466 129.745 19.2595C130.051 18.9255 130.25 18.5317 130.342 18.0782C130.435 17.6113 130.48 17.1312 130.479 16.6379ZM145.645 16.5846C145.65 18.6513 145.033 20.1993 143.796 21.2287C143.476 21.4961 143.103 21.7036 142.677 21.8512C142.264 21.9987 141.791 22.0731 141.258 22.0743C140.631 22.0756 140.077 21.9835 139.597 21.7979C139.13 21.5989 138.776 21.353 138.535 21.0602L138.546 25.8002L136.046 25.8057L136.014 11.4257L138.174 11.421L138.337 12.5607C138.642 12.08 139.062 11.7324 139.594 11.5179C140.127 11.2901 140.68 11.1755 141.254 11.1743C141.774 11.1731 142.24 11.2521 142.654 11.4112C143.081 11.5702 143.455 11.7828 143.776 12.0487C144.403 12.554 144.871 13.193 145.18 13.9657C145.488 14.725 145.643 15.598 145.645 16.5846ZM143.106 16.6302C143.105 16.1769 143.057 15.7303 142.963 15.2905C142.882 14.8374 142.707 14.4377 142.44 14.0917C142.253 13.8654 142.019 13.6726 141.739 13.5132C141.472 13.3538 141.145 13.2745 140.758 13.2753C140.265 13.2764 139.865 13.384 139.559 13.598C139.253 13.7986 139.013 14.0658 138.841 14.3996C138.668 14.7199 138.549 15.0802 138.483 15.4803C138.431 15.8805 138.405 16.2672 138.406 16.6405C138.406 17.0138 138.434 17.4004 138.488 17.8003C138.556 18.1869 138.676 18.5466 138.851 18.8795C139.025 19.1992 139.265 19.4653 139.572 19.678C139.879 19.8773 140.28 19.9764 140.773 19.9753C141.16 19.9745 141.486 19.8938 141.752 19.7332C142.032 19.5726 142.265 19.3787 142.451 19.1516C142.717 18.8044 142.889 18.4107 142.969 17.9705C143.061 17.5303 143.107 17.0835 143.106 16.6302Z" fill="#F9F9FA"/>
</svg>
