<svg width="12" height="12" viewBox="0 0 12 12" fill="none" xmlns="http://www.w3.org/2000/svg">
<path d="M1.24498 5.46225C0.832156 5.46225 0.521456 5.35796 0.312873 5.14937C0.104291 4.94079 0 4.6214 0 4.1912V1.27105C0 0.845193 0.104291 0.527974 0.312873 0.319392C0.521456 0.106464 0.832156 0 1.24498 0H4.21727C4.63009 0 4.94079 0.106464 5.14937 0.319392C5.35796 0.527974 5.46225 0.845193 5.46225 1.27105V4.1912C5.46225 4.6214 5.35796 4.94079 5.14937 5.14937C4.94079 5.35796 4.63009 5.46225 4.21727 5.46225H1.24498ZM1.25801 4.54318H4.19772C4.3107 4.54318 4.39544 4.51494 4.45193 4.45845C4.51276 4.39761 4.54318 4.30635 4.54318 4.18468V1.27105C4.54318 1.15372 4.51276 1.06681 4.45193 1.01032C4.39544 0.949484 4.3107 0.919066 4.19772 0.919066H1.25801C1.14503 0.919066 1.06029 0.949484 1.0038 1.01032C0.947311 1.06681 0.919066 1.15372 0.919066 1.27105V4.18468C0.919066 4.30635 0.947311 4.39761 1.0038 4.45845C1.06029 4.51494 1.14503 4.54318 1.25801 4.54318ZM7.78924 5.46225C7.37208 5.46225 7.05921 5.35796 6.85062 5.14937C6.64204 4.94079 6.53775 4.6214 6.53775 4.1912V1.27105C6.53775 0.845193 6.64204 0.527974 6.85062 0.319392C7.05921 0.106464 7.37208 0 7.78924 0H10.755C11.1678 0 11.4785 0.106464 11.6871 0.319392C11.8957 0.527974 12 0.845193 12 1.27105V4.1912C12 4.6214 11.8957 4.94079 11.6871 5.14937C11.4785 5.35796 11.1678 5.46225 10.755 5.46225H7.78924ZM7.80228 4.54318H10.742C10.8593 4.54318 10.9441 4.51494 10.9962 4.45845C11.0527 4.39761 11.0809 4.30635 11.0809 4.18468V1.27105C11.0809 1.15372 11.0527 1.06681 10.9962 1.01032C10.9441 0.949484 10.8593 0.919066 10.742 0.919066H7.80228C7.68495 0.919066 7.59804 0.949484 7.54155 1.01032C7.48506 1.06681 7.45682 1.15372 7.45682 1.27105V4.18468C7.45682 4.30635 7.48506 4.39761 7.54155 4.45845C7.59804 4.51494 7.68495 4.54318 7.80228 4.54318ZM1.24498 12C0.832156 12 0.521456 11.8957 0.312873 11.6871C0.104291 11.4785 0 11.1592 0 10.729V7.81532C0 7.38512 0.104291 7.06573 0.312873 6.85714C0.521456 6.64856 0.832156 6.54427 1.24498 6.54427H4.21727C4.63009 6.54427 4.94079 6.64856 5.14937 6.85714C5.35796 7.06573 5.46225 7.38512 5.46225 7.81532V10.729C5.46225 11.1592 5.35796 11.4785 5.14937 11.6871C4.94079 11.8957 4.63009 12 4.21727 12H1.24498ZM1.25801 11.0809H4.19772C4.3107 11.0809 4.39544 11.0527 4.45193 10.9962C4.51276 10.9397 4.54318 10.8528 4.54318 10.7355V7.81532C4.54318 7.69799 4.51276 7.61108 4.45193 7.55459C4.39544 7.49375 4.3107 7.46334 4.19772 7.46334H1.25801C1.14503 7.46334 1.06029 7.49375 1.0038 7.55459C0.947311 7.61108 0.919066 7.69799 0.919066 7.81532V10.7355C0.919066 10.8528 0.947311 10.9397 1.0038 10.9962C1.06029 11.0527 1.14503 11.0809 1.25801 11.0809ZM7.78924 12C7.37208 12 7.05921 11.8957 6.85062 11.6871C6.64204 11.4785 6.53775 11.1592 6.53775 10.729V7.81532C6.53775 7.38512 6.64204 7.06573 6.85062 6.85714C7.05921 6.64856 7.37208 6.54427 7.78924 6.54427H10.755C11.1678 6.54427 11.4785 6.64856 11.6871 6.85714C11.8957 7.06573 12 7.38512 12 7.81532V10.729C12 11.1592 11.8957 11.4785 11.6871 11.6871C11.4785 11.8957 11.1678 12 10.755 12H7.78924ZM7.80228 11.0809H10.742C10.8593 11.0809 10.9441 11.0527 10.9962 10.9962C11.0527 10.9397 11.0809 10.8528 11.0809 10.7355V7.81532C11.0809 7.69799 11.0527 7.61108 10.9962 7.55459C10.9441 7.49375 10.8593 7.46334 10.742 7.46334H7.80228C7.68495 7.46334 7.59804 7.49375 7.54155 7.55459C7.48506 7.61108 7.45682 7.69799 7.45682 7.81532V10.7355C7.45682 10.8528 7.48506 10.9397 7.54155 10.9962C7.59804 11.0527 7.68495 11.0809 7.80228 11.0809Z" fill="#68686A"/>
</svg>
