<svg width="12" height="9" viewBox="0 0 12 9" fill="none" xmlns="http://www.w3.org/2000/svg">
<path d="M0.750372 1.55236C0.543921 1.55236 0.367246 1.47844 0.220347 1.3306C0.0734491 1.17864 0 0.99384 0 0.776181C0 0.562628 0.0734491 0.379877 0.220347 0.227926C0.367246 0.0759754 0.543921 0 0.750372 0C0.956824 0 1.1335 0.0759754 1.2804 0.227926C1.4273 0.379877 1.50074 0.562628 1.50074 0.776181C1.50074 0.99384 1.4273 1.17864 1.2804 1.3306C1.1335 1.47844 0.956824 1.55236 0.750372 1.55236ZM3.38263 1.27515C3.24764 1.27515 3.13251 1.22793 3.03722 1.13347C2.94591 1.03491 2.90025 0.915811 2.90025 0.776181C2.90025 0.63655 2.94591 0.519507 3.03722 0.425051C3.13251 0.330595 3.24764 0.283368 3.38263 0.283368H11.5117C11.6467 0.283368 11.7618 0.330595 11.8571 0.425051C11.9524 0.519507 12 0.63655 12 0.776181C12 0.915811 11.9524 1.03491 11.8571 1.13347C11.7618 1.22793 11.6467 1.27515 11.5117 1.27515H3.38263ZM0.750372 5.27926C0.543921 5.27926 0.367246 5.20329 0.220347 5.05133C0.0734491 4.89938 0 4.71663 0 4.50308C0 4.28953 0.0734491 4.10678 0.220347 3.95483C0.367246 3.80287 0.543921 3.7269 0.750372 3.7269C0.956824 3.7269 1.1335 3.80287 1.2804 3.95483C1.4273 4.10678 1.50074 4.28953 1.50074 4.50308C1.50074 4.71663 1.4273 4.89938 1.2804 5.05133C1.1335 5.20329 0.956824 5.27926 0.750372 5.27926ZM3.38263 4.99589C3.24764 4.99589 3.13251 4.94867 3.03722 4.85421C2.94591 4.75975 2.90025 4.64271 2.90025 4.50308C2.90025 4.36345 2.94591 4.24641 3.03722 4.15195C3.13251 4.05339 3.24764 4.00411 3.38263 4.00411H11.5117C11.6467 4.00411 11.7618 4.05339 11.8571 4.15195C11.9524 4.24641 12 4.36345 12 4.50308C12 4.64271 11.9524 4.75975 11.8571 4.85421C11.7618 4.94867 11.6467 4.99589 11.5117 4.99589H3.38263ZM0.750372 9C0.543921 9 0.367246 8.92608 0.220347 8.77823C0.0734491 8.62628 0 8.44148 0 8.22382C0 8.01027 0.0734491 7.82957 0.220347 7.68172C0.367246 7.52977 0.543921 7.4538 0.750372 7.4538C0.956824 7.4538 1.1335 7.52977 1.2804 7.68172C1.4273 7.82957 1.50074 8.01027 1.50074 8.22382C1.50074 8.44148 1.4273 8.62628 1.2804 8.77823C1.1335 8.92608 0.956824 9 0.750372 9ZM3.38263 8.72279C3.24764 8.72279 3.13251 8.67556 3.03722 8.58111C2.94591 8.48255 2.90025 8.36345 2.90025 8.22382C2.90025 8.08419 2.94591 7.96715 3.03722 7.87269C3.13251 7.77823 3.24764 7.73101 3.38263 7.73101H11.5117C11.6467 7.73101 11.7618 7.77823 11.8571 7.87269C11.9524 7.96715 12 8.08419 12 8.22382C12 8.36345 11.9524 8.48255 11.8571 8.58111C11.7618 8.67556 11.6467 8.72279 11.5117 8.72279H3.38263Z" fill="#68686A"/>
</svg>
