<svg width="12" height="12" viewBox="0 0 12 12" fill="none" xmlns="http://www.w3.org/2000/svg">
<path d="M0 4.85352C0 4.18449 0.126919 3.55803 0.380757 2.97415C0.634596 2.38621 0.986694 1.86923 1.43705 1.42321C1.88741 0.977192 2.40737 0.628485 2.99693 0.377091C3.59058 0.125697 4.22518 0 4.90072 0C5.57625 0 6.2088 0.125697 6.79836 0.377091C7.39202 0.628485 7.91402 0.977192 8.36438 1.42321C8.81474 1.86923 9.16684 2.38621 9.42068 2.97415C9.67451 3.55803 9.80143 4.18449 9.80143 4.85352C9.80143 5.40902 9.71136 5.93614 9.53122 6.43487C9.35517 6.9336 9.10952 7.38571 8.79427 7.79118L11.7973 10.7836C11.8628 10.8485 11.912 10.9235 11.9447 11.0086C11.9816 11.0938 12 11.185 12 11.2823C12 11.4161 11.9693 11.5378 11.9079 11.6472C11.8506 11.7567 11.7687 11.8419 11.6622 11.9027C11.5558 11.9676 11.433 12 11.2938 12C11.1955 12 11.1013 11.9818 11.0113 11.9453C10.9253 11.9128 10.8454 11.8621 10.7718 11.7932L7.75026 8.79473C7.34903 9.07856 6.90686 9.30157 6.42375 9.46376C5.94063 9.62595 5.43296 9.70704 4.90072 9.70704C4.22518 9.70704 3.59058 9.58135 2.99693 9.32995C2.40737 9.07856 1.88741 8.72985 1.43705 8.28383C0.986694 7.83781 0.634596 7.32286 0.380757 6.73898C0.126919 6.15104 0 5.52255 0 4.85352ZM1.05015 4.85352C1.05015 5.38064 1.14841 5.87532 1.34493 6.33756C1.54555 6.79574 1.8219 7.19919 2.174 7.5479C2.53019 7.8966 2.93961 8.1703 3.40225 8.36898C3.86899 8.56766 4.36847 8.667 4.90072 8.667C5.43296 8.667 5.9304 8.56766 6.39304 8.36898C6.85977 8.1703 7.26919 7.8966 7.62129 7.5479C7.97339 7.19919 8.24974 6.79574 8.45036 6.33756C8.65097 5.87532 8.75128 5.38064 8.75128 4.85352C8.75128 4.32641 8.65097 3.83376 8.45036 3.37557C8.24974 2.91333 7.97339 2.50786 7.62129 2.15915C7.26919 1.80639 6.85977 1.53269 6.39304 1.33806C5.9304 1.13938 5.43296 1.04004 4.90072 1.04004C4.36847 1.04004 3.86899 1.13938 3.40225 1.33806C2.93961 1.53269 2.53019 1.80639 2.174 2.15915C1.8219 2.50786 1.54555 2.91333 1.34493 3.37557C1.14841 3.83376 1.05015 4.32641 1.05015 4.85352Z" fill="currentColor"/>
</svg>
