<svg width="12" height="12" viewBox="0 0 12 12" fill="none" xmlns="http://www.w3.org/2000/svg">
<path d="M6.65455 11.3527C6.65455 11.5273 6.58909 11.6776 6.45818 11.8036C6.33212 11.9345 6.17939 12 6 12C5.82061 12 5.66788 11.9345 5.54182 11.8036C5.41576 11.6776 5.35273 11.5273 5.35273 11.3527V0.647273C5.35273 0.472727 5.41576 0.322424 5.54182 0.196364C5.66788 0.0654545 5.82061 0 6 0C6.17939 0 6.33212 0.0654545 6.45818 0.196364C6.58909 0.322424 6.65455 0.472727 6.65455 0.647273V11.3527ZM0.647273 6.64727C0.472727 6.64727 0.32 6.58424 0.189091 6.45818C0.0630303 6.33212 0 6.17939 0 6C0 5.82061 0.0630303 5.66788 0.189091 5.54182C0.32 5.41091 0.472727 5.34545 0.647273 5.34545H11.3527C11.5273 5.34545 11.6776 5.41091 11.8036 5.54182C11.9345 5.66788 12 5.82061 12 6C12 6.17939 11.9345 6.33212 11.8036 6.45818C11.6776 6.58424 11.5273 6.64727 11.3527 6.64727H0.647273Z" fill="#68686A"/>
</svg>
