<svg width="12" height="9" viewBox="0 0 12 9" fill="none" xmlns="http://www.w3.org/2000/svg">
<path d="M0 8.57041C0 8.51313 0.0107383 8.45585 0.0322148 8.39857C0.0572707 8.34487 0.0876957 8.30012 0.12349 8.26432L8.26309 0.123508C8.34899 0.0411694 8.45101 0 8.56913 0C8.69083 0 8.79284 0.0411694 8.87517 0.123508C8.95749 0.205847 8.99866 0.307876 8.99866 0.429594C8.99866 0.547733 8.95749 0.649761 8.87517 0.73568L1.47651 8.13544H11.5651C11.6832 8.13544 11.7852 8.1784 11.8711 8.26432C11.957 8.35024 12 8.45227 12 8.57041C12 8.68854 11.957 8.78878 11.8711 8.87112C11.7852 8.95704 11.6832 9 11.5651 9H0.42953C0.314989 9 0.214765 8.95704 0.128859 8.87112C0.042953 8.78878 0 8.68854 0 8.57041ZM6.2604 8.5543C6.2604 7.75597 6.10828 7.00418 5.80403 6.29893C5.49978 5.59368 5.08456 4.97792 4.55839 4.45167L5.17584 3.84487C5.57673 4.24582 5.92215 4.69511 6.21208 5.19272C6.50559 5.69033 6.7311 6.22196 6.88859 6.78759C7.04609 7.35322 7.12483 7.94212 7.12483 8.5543H6.2604Z" fill="#68686A"/>
</svg>
