<svg width="6" height="9" viewBox="0 0 6 9" fill="none" xmlns="http://www.w3.org/2000/svg">
<path d="M3 9C2.39971 9 1.87446 8.87407 1.42424 8.62222C0.974026 8.37333 0.623377 8.0237 0.372294 7.57333C0.124098 7.12 0 6.59259 0 5.99111C0 5.69481 0.031746 5.40296 0.0952381 5.11556C0.15873 4.82815 0.236652 4.55704 0.329004 4.30222C0.421356 4.04741 0.50938 3.82222 0.593074 3.62667C0.823954 3.09037 1.10678 2.53926 1.44156 1.97333C1.77633 1.40741 2.10101 0.874074 2.41558 0.373333C2.49351 0.254815 2.57864 0.162963 2.671 0.0977778C2.76335 0.0325926 2.87302 0 3 0C3.12698 0 3.23665 0.0325926 3.329 0.0977778C3.42424 0.162963 3.50938 0.254815 3.58442 0.373333C3.90188 0.874074 4.22655 1.40741 4.55844 1.97333C4.89322 2.53926 5.17605 3.09037 5.40693 3.62667C5.49062 3.82222 5.57864 4.04741 5.671 4.30222C5.76335 4.55704 5.84127 4.82815 5.90476 5.11556C5.96825 5.40296 6 5.69481 6 5.99111C6 6.59259 5.87446 7.12 5.62338 7.57333C5.37518 8.0237 5.02597 8.37333 4.57576 8.62222C4.12554 8.87407 3.60029 9 3 9ZM3 8.27111C3.45887 8.27111 3.86003 8.1763 4.20346 7.98667C4.5469 7.79704 4.81385 7.53185 5.00433 7.19111C5.19769 6.84741 5.29437 6.44741 5.29437 5.99111C5.29437 5.62667 5.23665 5.27259 5.12121 4.92889C5.00866 4.58222 4.89177 4.2637 4.77056 3.97333C4.53391 3.38963 4.26263 2.85037 3.95671 2.35556C3.65079 1.86074 3.34776 1.37926 3.04762 0.911111C3.03608 0.887407 3.02165 0.875556 3.00433 0.875556C2.98701 0.875556 2.97114 0.887407 2.95671 0.911111C2.65368 1.37926 2.34921 1.86222 2.04329 2.36C1.74026 2.85481 1.46753 3.39407 1.22511 3.97778C1.1039 4.26518 0.987013 4.58222 0.874459 4.92889C0.764791 5.27259 0.709957 5.62667 0.709957 5.99111C0.709957 6.44741 0.805195 6.84741 0.995671 7.19111C1.18615 7.53185 1.4531 7.79704 1.79654 7.98667C2.13997 8.1763 2.54113 8.27111 3 8.27111Z" fill="#68686A"/>
</svg>
