<svg width="12" height="9" viewBox="0 0 12 9" fill="none" xmlns="http://www.w3.org/2000/svg">
<path d="M4.21384 5.00574L0.883193 7.00287C0.745514 7.08608 0.607836 7.12339 0.470157 7.11478C0.335408 7.10617 0.222629 7.05452 0.13182 6.95983C0.0439399 6.86227 0 6.72597 0 6.55093V2.44476C0 2.27547 0.0439399 2.14347 0.13182 2.04878C0.2197 1.95122 0.331014 1.8967 0.465763 1.88522C0.603442 1.87374 0.742585 1.91105 0.883193 1.99713L4.21384 3.99426C4.36031 4.08034 4.45698 4.18651 4.50385 4.31277C4.55364 4.43902 4.55364 4.56528 4.50385 4.69153C4.45405 4.81492 4.35738 4.91966 4.21384 5.00574ZM3.74368 4.58823C3.77591 4.56815 3.79641 4.54232 3.8052 4.51076C3.81692 4.47633 3.79495 4.44189 3.73929 4.40746L0.795313 2.62123C0.771878 2.60689 0.739656 2.60115 0.698645 2.60402C0.657635 2.60689 0.637129 2.63702 0.637129 2.6944V6.30559C0.637129 6.35724 0.65617 6.38594 0.694251 6.39168C0.735262 6.39742 0.768949 6.39311 0.795313 6.37877L3.74368 4.58823ZM5.9978 9C5.91285 9 5.83815 8.9713 5.77371 8.91392C5.70926 8.85653 5.67704 8.78479 5.67704 8.69871V0.296987C5.67704 0.213773 5.70926 0.143472 5.77371 0.0860832C5.83815 0.0286944 5.91285 0 5.9978 0C6.08568 0 6.16185 0.0286944 6.22629 0.0860832C6.29074 0.143472 6.32296 0.213773 6.32296 0.296987V8.69871C6.32296 8.78479 6.29074 8.85653 6.22629 8.91392C6.16185 8.9713 6.08568 9 5.9978 9ZM11.1124 7.00287L7.78176 5.00574C7.63823 4.91966 7.54156 4.81492 7.49176 4.69153C7.44489 4.56528 7.44489 4.43902 7.49176 4.31277C7.53863 4.18651 7.6353 4.08034 7.78176 3.99426L11.1124 1.99713C11.256 1.91105 11.3951 1.87374 11.5298 1.88522C11.6646 1.8967 11.7759 1.95122 11.8638 2.04878C11.9546 2.14347 12 2.27547 12 2.44476V6.55093C12 6.72597 11.9546 6.86227 11.8638 6.95983C11.773 7.05452 11.6602 7.10617 11.5254 7.11478C11.3907 7.12339 11.253 7.08608 11.1124 7.00287ZM11.2003 6.37877C11.2296 6.39311 11.2633 6.39742 11.3014 6.39168C11.3394 6.38594 11.3585 6.35724 11.3585 6.30559V2.6944C11.3585 2.63702 11.338 2.60689 11.297 2.60402C11.2559 2.60115 11.2237 2.60689 11.2003 2.62123L8.25632 4.40746C8.20359 4.44189 8.18162 4.47633 8.19041 4.51076C8.19919 4.54232 8.22116 4.56815 8.25632 4.58823L11.2003 6.37877Z" fill="#68686A"/>
</svg>
