<svg width="12" height="13" viewBox="0 0 12 13" fill="none" xmlns="http://www.w3.org/2000/svg">
<path d="M10.4838 12.9999L4.58186 12.9443C4.07366 12.9395 3.68933 12.8116 3.42889 12.5607C3.17245 12.3137 3.04177 11.9319 3.03684 11.4152L2.98098 5.56354C2.97601 5.04287 3.09941 4.66145 3.35118 4.41929C3.60688 4.17322 3.98883 4.05258 4.49703 4.05736L10.3989 4.11297C10.9111 4.11779 11.2954 4.24565 11.5519 4.49655C11.8083 4.7435 11.939 5.12731 11.944 5.64798L11.9999 11.4996C12.0048 12.0163 11.8814 12.3958 11.6296 12.6379C11.3779 12.884 10.9959 13.0047 10.4838 12.9999ZM10.4568 12.0471C10.6633 12.049 10.8117 12.0051 10.9022 11.9152C10.9966 11.8293 11.0428 11.6819 11.0409 11.4728L10.9853 5.65078C10.9833 5.44172 10.9342 5.29336 10.8381 5.20568C10.7459 5.1141 10.5966 5.06733 10.3902 5.06539L4.52399 5.01012C4.3215 5.00821 4.17305 5.05217 4.07863 5.142C3.98417 5.22788 3.93794 5.37535 3.93993 5.5844L3.9955 11.4064C3.9975 11.6155 4.04656 11.7639 4.14267 11.8515C4.23883 11.9432 4.38814 11.9899 4.59063 11.9918L10.4568 12.0471ZM2.95275 2.60518L2.93185 0.416003C2.92978 0.199057 2.998 0.067572 3.13651 0.0215475C3.27498 -0.0284215 3.42818 0.00851856 3.5961 0.132368L5.10733 1.2411C5.23529 1.33696 5.29973 1.4342 5.30068 1.53281C5.30162 1.63142 5.23901 1.72747 5.11287 1.82094L3.62247 2.89547C3.45689 3.01618 3.30439 3.05221 3.16497 3.00357C3.02552 2.95098 2.95478 2.81819 2.95275 2.60518ZM3.56429 1.1674C3.65958 1.1683 3.74129 1.20259 3.80943 1.27028C3.88153 1.33801 3.91802 1.41724 3.91889 1.50796C3.91979 1.60263 3.88485 1.68513 3.81406 1.75545C3.7472 1.82187 3.66613 1.85463 3.57084 1.85374L2.83236 1.84678C2.3996 1.8427 2.02529 1.93186 1.70943 2.11426C1.3975 2.29275 1.15772 2.54292 0.990087 2.86475C0.82245 3.18659 0.740628 3.55657 0.744618 3.97468L0.75309 4.86219C0.754031 4.9608 0.719126 5.04724 0.648376 5.12151C0.573617 5.1918 0.484623 5.22646 0.381395 5.22549C0.282136 5.22456 0.196436 5.18825 0.124292 5.11658C0.0481405 5.04092 0.00959389 4.95379 0.00865264 4.85518L0.000181518 3.96767C-0.00520244 3.40361 0.109182 2.9097 0.343336 2.48594C0.573519 2.06215 0.901879 1.73393 1.32842 1.50131C1.75098 1.26864 2.24813 1.155 2.81986 1.16039L3.56429 1.1674Z" fill="#68686A"/>
</svg>
