<svg width="8" height="9" viewBox="0 0 8 9" fill="none" xmlns="http://www.w3.org/2000/svg">
<path d="M3.60665 3.16038L2.05332 0.662395C1.9886 0.559136 1.95959 0.455877 1.96628 0.352618C1.97298 0.251556 2.01315 0.166972 2.0868 0.0988649C2.16268 0.0329549 2.26869 -5.7383e-09 2.40483 0L5.59852 1.34615e-07C5.73019 1.40165e-07 5.83286 0.0329551 5.9065 0.098865C5.98239 0.164775 6.02479 0.248261 6.03372 0.349323C6.04264 0.452582 6.01363 0.556939 5.94668 0.662395L4.39335 3.16038C4.3264 3.27023 4.24382 3.34273 4.14562 3.37788C4.04743 3.41523 3.94923 3.41523 3.85103 3.37788C3.75506 3.34053 3.6736 3.26803 3.60665 3.16038ZM3.93137 2.80776C3.947 2.83193 3.96708 2.84731 3.99163 2.8539C4.01841 2.86269 4.04519 2.84621 4.07197 2.80447L5.46126 0.596485C5.47242 0.578909 5.47689 0.554742 5.47465 0.523984C5.47242 0.493226 5.44899 0.477847 5.40435 0.477847L2.59565 0.477847C2.55548 0.477847 2.53316 0.492127 2.52869 0.520688C2.52423 0.551446 2.52758 0.576712 2.53874 0.596485L3.93137 2.80776ZM0.5 4.49835C0.5 4.43464 0.522318 4.37862 0.566954 4.33028C0.61159 4.28195 0.667384 4.25778 0.734338 4.25778H7.26901C7.33373 4.25778 7.38841 4.28195 7.43305 4.33028C7.47768 4.37862 7.5 4.43464 7.5 4.49835C7.5 4.56426 7.47768 4.62138 7.43305 4.66972C7.38841 4.71805 7.33373 4.74222 7.26901 4.74222H0.734338C0.667384 4.74222 0.61159 4.71805 0.566954 4.66972C0.522318 4.62138 0.5 4.56426 0.5 4.49835ZM2.05332 8.33431L3.60665 5.83632C3.6736 5.72867 3.75506 5.65617 3.85103 5.61882C3.94923 5.58367 4.04743 5.58367 4.14562 5.61882C4.24382 5.65397 4.3264 5.72647 4.39335 5.83632L5.94668 8.33431C6.01363 8.44196 6.04264 8.54632 6.03372 8.64738C6.02479 8.74844 5.98238 8.83193 5.9065 8.89784C5.83285 8.96595 5.73019 9 5.59852 9H2.40483C2.26869 9 2.16268 8.96595 2.0868 8.89784C2.01315 8.82973 1.97298 8.74515 1.96628 8.64409C1.95959 8.54303 1.9886 8.43977 2.05332 8.33431ZM2.53874 8.40022C2.52758 8.42219 2.52423 8.44746 2.52869 8.47602C2.53316 8.50458 2.55548 8.51886 2.59565 8.51886H5.40435C5.44899 8.51886 5.47242 8.50348 5.47465 8.47272C5.47688 8.44196 5.47242 8.4178 5.46126 8.40022L4.07197 6.19224C4.04519 6.15269 4.01841 6.13621 3.99163 6.14281C3.96708 6.1494 3.947 6.16587 3.93137 6.19224L2.53874 8.40022Z" fill="#68686A"/>
</svg>
